<?xml version="1.0" encoding="UTF-8" standalone="no"?>
<!-- Created with Inkscape (http://www.inkscape.org/) -->
<svg
   xmlns:svg="http://www.w3.org/2000/svg"
   xmlns="http://www.w3.org/2000/svg"
   version="1.0"
   width="388.44113"
   height="30.455008"
   id="svg2459">
  <defs
     id="defs2461" />
  <style type="text/css" >
    <![CDATA[
      path {
         fill: #F0F0F0;
      }
    ]]>
  </style>
  <g
     transform="translate(42.791993,-725.70609)"
     id="layer1">
    <path
       d="M 146.86297,750.11179 C 152.67239,746.62614 153.09948,743.99636 152.85818,737.96357 C 152.62153,732.04725 148.6773,728.6552 143.39203,726.60419 C 138.10678,724.55319 131.95379,726.20978 129.19283,729.60183 C 126.36794,733.07238 126.58963,736.70141 129.35059,739.22572 C 131.21452,740.92987 133.3737,739.22572 133.29483,737.64802 C 133.18616,735.47462 128.71952,735.99145 132.03268,732.44166 C 134.27593,730.03816 138.89561,730.31179 141.34103,733.07273 C 143.78645,735.83369 145.11378,740.81322 141.81435,743.48547 C 132.26933,751.21616 120.59442,739.30461 111.5227,739.38348 C 102.45099,739.46237 97.592048,748.77001 85.964124,748.37633 C 64.869933,747.66215 51.254955,728.81298 26.958523,728.6552 C 15.440552,728.57991 -1.9225823,744.68546 -10.590497,746.32534 C -31.02157,750.19068 -42.223174,736.22811 -42.775371,736.54365 C -43.327567,736.85919 -30.074959,751.84725 -9.9594298,748.84963 C -0.23656907,747.40073 17.645325,732.40341 27.905136,732.75721 C 50.78165,733.54604 62.336264,750.64638 85.333057,752.79386 C 97.198998,753.90192 104.26534,745.93091 112.15377,745.69426 C 120.04222,745.4576 133.4526,758.158 146.86297,750.11179 z"
       id="path6882" />
    <path
       d="M 155.99417,750.11179 C 150.18475,746.62614 149.75764,743.99636 149.99896,737.96357 C 150.23561,732.04725 154.17984,728.6552 159.46509,726.60419 C 164.75036,724.55319 170.90335,726.20978 173.66429,729.60183 C 176.48919,733.07238 176.26749,736.70141 173.50653,739.22572 C 171.64262,740.92987 169.48343,739.22572 169.5623,737.64802 C 169.67098,735.47462 174.1376,735.99145 170.82446,732.44166 C 168.58121,730.03816 163.96153,730.31179 161.51609,733.07273 C 159.07067,735.83369 157.74334,740.81322 161.04279,743.48547 C 170.58781,751.21616 182.26272,739.30461 191.33442,739.38348 C 200.40615,739.46237 205.26507,748.77001 216.89301,748.37633 C 237.98721,747.66215 251.60218,728.81298 275.8986,728.6552 C 287.41659,728.57991 304.7797,744.68546 313.44764,746.32534 C 333.8787,750.19068 345.08031,736.22811 345.63251,736.54365 C 346.18471,736.85919 332.93209,751.84725 312.81657,748.84963 C 303.0937,747.40073 285.21181,732.40341 274.95199,732.75721 C 252.07548,733.54604 240.52087,750.64638 217.52408,752.79386 C 205.65814,753.90192 198.5918,745.93091 190.70335,745.69426 C 182.81492,745.4576 169.40454,758.158 155.99417,750.11179 z"
       id="use6884" />
    <path
       d="M 11.788064,739.02097 C 7.7081024,741.46893 7.4081413,743.31581 7.5776134,747.55267 C 7.7438182,751.70772 10.513851,754.08995 14.225691,755.53036 C 17.937536,756.97077 22.258787,755.80736 24.19781,753.42513 C 26.181727,750.98776 26.026032,748.43907 24.08701,746.66625 C 22.777977,745.46942 21.261574,746.66625 21.316973,747.77427 C 21.393293,749.30065 24.530213,748.93767 22.203386,751.43071 C 20.627948,753.11869 17.383531,752.92653 15.66611,750.98751 C 13.948687,749.04848 13.016506,745.55136 15.333704,743.67462 C 22.037183,738.24536 36.164349,754.64394 53.227749,754.75475 C 61.31683,754.80763 73.510978,743.49669 79.598457,742.345 C 93.947233,739.63036 101.81411,749.43629 102.20193,749.21467 C 102.58972,748.99307 93.282414,738.46696 79.155254,740.57219 C 72.326883,741.58974 59.76841,752.12238 52.562939,751.87391 C 36.496751,751.3199 21.206173,733.3701 11.788064,739.02097 z"
       id="path6888" />
    <path
       d="M 288.63181,739.02097 C 292.71178,741.46893 293.01174,743.31581 292.84227,747.55267 C 292.67605,751.70772 289.90602,754.08995 286.19419,755.53036 C 282.48234,756.97077 278.1611,755.80736 276.22207,753.42513 C 274.23816,750.98776 274.39384,748.43907 276.33288,746.66625 C 277.6419,745.46942 279.15831,746.66625 279.1029,747.77427 C 279.02658,749.30065 275.88966,748.93767 278.21648,751.43071 C 279.79192,753.11869 283.03635,752.92653 284.75377,750.98751 C 286.4712,749.04848 287.40337,745.55136 285.08618,743.67462 C 278.3827,738.24536 264.25552,754.64394 247.19212,754.75475 C 239.10305,754.80763 226.9089,743.49669 220.82141,742.345 C 206.47265,739.63036 198.60575,749.43629 198.21796,749.21467 C 197.83015,748.99307 207.13745,738.46696 221.26463,740.57219 C 228.09299,741.58974 240.65146,752.12238 247.85694,751.87391 C 263.92313,751.3199 279.21371,733.3701 288.63181,739.02097 z"
       id="path6890" />
  </g>
</svg>
